<?xml version="1.0" encoding="UTF-8"?>
<svg id="Layer_1" data-name="Layer 1" xmlns="http://www.w3.org/2000/svg" viewBox="0 0 39.13 41.09">
  <defs>
    <style>
      .cls-1 {
        fill: #fff;
      }

      .cls-2 {
        fill: #df1f26;
      }
    </style>
  </defs>
  <g>
    <rect class="cls-2" x="18.28" y="1.93" width="2.48" height="2.67" transform="translate(2.72 13.73) rotate(-41.41)"/>
    <rect class="cls-2" x="18.28" y="36.49" width="2.48" height="2.67" transform="translate(-20.14 22.37) rotate(-41.41)"/>
    <g>
      <path class="cls-2" d="M12.03,12.91c2.39,1.22,4.7,2.25,7.08,3.47.18.02.23.09.45.1.18.02.27-.08.45-.1,2.39-1.22,4.7-2.25,7.08-3.47.27-.12.33-.49.49-.69.96-1.74,1.63-3.55,1.11-5.35-.15-.72-.85-1.31-1.46-2-.71-.77-1.76-1.14-2.7-1.34-.6-.13-1.3-.07-1.82.25-.27.11-.62.33-.77.71-.48,1.89-1.98,3.86-.73,5.5.1.08.49.33.85.2,1.71-.52,3.33-.93,4.98-1.07.37-.03.27.99-.09,1.11-2.3,1.12-5,2.02-7.4,3.05-2.4-1.04-5.09-1.94-7.4-3.05-.36-.12-.46-1.15-.09-1.11,1.65.14,3.27.56,4.98,1.07.36.12.75-.12.85-.2,1.25-1.65-.24-3.62-.73-5.5-.15-.38-.5-.6-.77-.71-.53-.32-1.22-.37-1.82-.25-.94.2-1.99.57-2.7,1.34-.61.69-1.31,1.27-1.46,2-.52,1.8.15,3.61,1.11,5.35.17.2.23.57.49.69ZM22.64,7.18c-.46.04-.25-.72,0-1.01.26-.21.63-.24.99-.27.46-.04,1.21.17,1.25.54.08.92-1.5.77-2.24.75ZM15.5,5.9c.37.03.73.06.99.27.25.3.46,1.05,0,1.01-.74.03-2.32.17-2.24-.75.03-.37.79-.58,1.25-.54Z"/>
      <path class="cls-2" d="M19.57,29.38s0,0,0,0c.05,0,.05,0,0,0Z"/>
      <path class="cls-2" d="M11.54,12.23s-.1.08-.19.08c.09,0,.18.02.19-.08Z"/>
      <path class="cls-2" d="M19.6,35.31s-.02,0-.03,0c-.01,0-.02,0-.03,0h.07Z"/>
      <path class="cls-2" d="M19.56,29.38s0,0,0,0c-.05,0-.04,0,0,0Z"/>
      <path class="cls-2" d="M27.78,12.3c-.09,0-.19-.08-.19-.08,0,.09.1.08.19.08Z"/>
      <path class="cls-2" d="M36.36,19.78c-.32-.53-.56-1.15-.44-1.9.24-1.5.59-2.82.74-4.31.12-.75-.03-1.47-.28-2.19-.33-.62-1-.93-1.72-.68-3.25,1.11-6.26,2.29-9.16,3.92-.53.32-.26,1.22-.48,1.89-.07.28-.03.74.09,1.01.21.35.42.61.72.86,1.36.81,2.46,1.82,3.57,2.92.51.6.58,1.43-.11,1.95-2.26,1.67-4.72,3.08-7.5,2.86-.92-.01-.27-.99.34-1.41,1.04-.73,2.26-.56,3.46-.48.19-1.03-1.74-.96-1.83-1.96-.02-.27.33-.49.6-.51.44-.22.81-.25,1.26-.38.53-.23,1.18-.19,1.72-.33-.99-.84-1.78-2.43-3.31-2.02-.98.36-.97,1.56-1.57,2.16-.25.3-.42-.61-.8-.76-.09,0-.37-.06-.46.04-.47.96-.95,1.84-1.63,2.54-.68-.7-1.16-1.58-1.63-2.54-.08-.1-.37-.03-.46-.04-.38.15-.55,1.06-.8.76-.59-.6-.58-1.8-1.57-2.16-1.53-.41-2.32,1.19-3.31,2.02.54.14,1.19.1,1.72.33.45.13.82.16,1.26.38.27.02.63.24.6.51-.09,1.01-2.02.93-1.83,1.96,1.21-.08,2.42-.25,3.46.48.61.42,1.26,1.4.34,1.41-2.79.22-5.25-1.19-7.5-2.86-.69-.52-.62-1.34-.11-1.95,1.11-1.1,2.21-2.12,3.57-2.92.3-.25.5-.51.72-.86.12-.27.15-.72.09-1.01-.22-.66.04-1.56-.48-1.89-2.9-1.63-5.92-2.81-9.16-3.92-.72-.25-1.39.07-1.72.68-.25.72-.4,1.44-.28,2.19.15,1.49.5,2.81.74,4.31.12.75-.12,1.37-.44,1.9-.52.69-1.4,1.26-1.38,2.1,0,.09.76-.21.63.15-.18,1-.63,1.98-.53,3,.17,1.21.54,2.26,1.19,3.33.32.58.85.9,1.28,1.22.94.82,1.91,1.36,2.88,1.91,1.58.97,3.4,1.21,4.97,2.27-.92,1.03-1.84,2.06-2.93,2.98,0,.09-.02.27-.03.37,1.8-.58,3.28-1.66,4.75-2.73,1.71.42,4.21.89,5.96.95,1.75-.06,4.25-.53,5.96-.95,1.48,1.07,2.95,2.15,4.75,2.73,0-.09-.02-.27-.03-.37-1.09-.92-2.01-1.95-2.93-2.98,1.57-1.06,3.39-1.3,4.97-2.27.97-.54,1.94-1.09,2.88-1.91.43-.31.96-.64,1.28-1.22.65-1.07,1.02-2.12,1.19-3.33.1-1.02-.36-2-.53-3-.12-.36.64-.06.63-.15.02-.83-.86-1.4-1.38-2.1ZM19.57,29.31s0,0,0,0c0,0,0,0,0,0,0,0,0,0,0,0t0,0ZM13.81,31.02c-1.04.28-2.27-.47-3.42-.94-2.51-.86-4.91-1.9-6.97-3.73-.08-.1.03-.37.04-.46,1.36-1.91,2.64-3.92,2.3-6.44-.22-1.77-1.2-3.24-1.15-4.89-.06-.37.25-.81.7-.68.99.27,1.83.72,2.76,1.16.71.34,2.08.46,2.19,1.39-.8.67-2.55.7-2.83,1.79.37-.06,1.31-.16,1.07.46-.23.53-.73.95-.87,1.49-.32,1.63.39,2.98.81,4.5.23.57.45,1.24.88,1.55,1.55,1.24,3.16,1.93,4.94,2.64.27.02.63.24.61.42-.05.64-.5,1.53-1.07,1.75ZM19.56,32.17c-1.13.04-2.29-.14-3.2-.67.43-.74.75-1.64,1.55-1.99.45-.2,1.43-.15,1.64-.14t0,0s0,0,0,0c.22-.01,1.19-.06,1.64.14.8.35,1.12,1.25,1.55,1.99-.91.53-2.07.7-3.2.67ZM35.71,26.35c-2.06,1.84-4.46,2.87-6.97,3.73-1.16.47-2.39,1.22-3.42.94-.57-.23-1.02-1.11-1.07-1.75-.02-.18.33-.4.61-.42,1.78-.71,3.39-1.4,4.94-2.64.43-.31.65-.98.88-1.55.42-1.51,1.14-2.86.81-4.5-.14-.54-.64-.96-.87-1.49-.24-.63.69-.52,1.07-.46-.28-1.08-2.03-1.12-2.83-1.79.1-.93,1.48-1.05,2.19-1.39.93-.44,1.77-.89,2.76-1.16.45-.13.76.3.7.68.05,1.66-.93,3.12-1.15,4.89-.34,2.52.94,4.53,2.3,6.44,0,.09.12.36.04.46Z"/>
    </g>
  </g>
  <g>
    <path class="cls-1" d="M19.38,6.5c-.38-.02-.73-.2-.97-.48l-1.76-2c-.25-.28-.38-.65-.35-1.03s.2-.73.48-.97l1.86-1.64c.26-.23.59-.35.94-.35.03,0,.06,0,.09,0,.38.02.73.2.97.48l1.76,2c.52.59.46,1.48-.13,2l-1.86,1.64c-.26.23-.59.35-.94.35-.03,0-.06,0-.09,0Z"/>
    <path class="cls-1" d="M19.38,41.06c-.38-.02-.73-.2-.97-.48l-1.76-2c-.52-.59-.46-1.48.13-2l1.86-1.64c.26-.23.59-.35.94-.35.03,0,.06,0,.09,0,.38.02.73.2.97.48l1.76,2c.52.59.46,1.48-.13,2l-1.86,1.64c-.26.23-.59.35-.94.35-.03,0-.06,0-.09,0Z"/>
    <g>
      <path class="cls-1" d="M19.5,17.89c-.29-.01-.5-.07-.62-.11-.14-.02-.28-.07-.41-.14-1.18-.61-2.35-1.16-3.52-1.72-1.18-.57-2.36-1.13-3.57-1.75-.57-.24-.84-.8-.97-1.06,0-.01,0-.02,0-.02,0,0,.02.02.04.04-.06-.07-.11-.15-.16-.23-.94-1.71-1.92-3.97-1.24-6.39.22-.94.86-1.61,1.42-2.2.12-.13.24-.25.36-.39.81-.88,1.97-1.47,3.46-1.78.29-.06.6-.09.9-.09.68,0,1.33.16,1.86.47.69.32,1.19.82,1.44,1.45.02.06.04.11.06.17.11.43.29.89.49,1.38.18.45.38.95.52,1.47.15-.53.35-1.02.53-1.47.19-.49.38-.95.49-1.38.02-.06.03-.12.06-.17.25-.63.75-1.13,1.44-1.45.54-.31,1.18-.47,1.86-.47.3,0,.6.03.9.09,1.49.31,2.65.9,3.45,1.76.14.15.26.28.38.41.56.59,1.2,1.27,1.42,2.2.68,2.42-.3,4.68-1.24,6.39-.03.05-.06.1-.1.15-.17.34-.44.88-1.08,1.15-1.12.58-2.31,1.14-3.49,1.71-1.16.56-2.33,1.11-3.51,1.72-.12.06-.25.1-.38.13-.14.05-.37.12-.67.12,0,0-.08,0-.12,0ZM18.48,11.32c.37.15.73.29,1.09.44.36-.15.72-.3,1.09-.44-.13-.08-.25-.16-.34-.24-.08-.07-.15-.14-.22-.23-.23-.31-.41-.62-.53-.94-.12.32-.29.63-.53.94-.06.08-.14.16-.22.23-.09.08-.21.16-.34.24Z"/>
      <path class="cls-1" d="M19.5,30.79c-.76-.05-1.36-.7-1.34-1.46.02-.72.57-1.3,1.27-1.36.04,0,.09,0,.13,0s.09,0,.13,0c.75.07,1.35.72,1.32,1.48-.03.76-.66,1.36-1.42,1.36,0,0-.07,0-.1,0Z"/>
      <path class="cls-1" d="M11.23,13.71c-.78-.07-1.36-.75-1.29-1.53.05-.59.45-1.06.99-1.23.19-.09.41-.14.62-.14s.44.05.65.16c.51.26.81.81.76,1.38-.07.8-.71,1.38-1.53,1.38,0,0-.16,0-.2,0Z"/>
      <path class="cls-1" d="M19.53,36.73c-.77,0-1.4-.62-1.42-1.39s.59-1.41,1.36-1.45c.03,0,.18,0,.22,0,.76.07,1.34.72,1.31,1.47-.03.76-.64,1.36-1.4,1.36h-.07Z"/>
      <path class="cls-1" d="M19.53,30.8c-.76,0-1.38-.6-1.42-1.36-.03-.76.54-1.41,1.3-1.47.04,0,.16,0,.16,0,.77,0,1.39.61,1.42,1.37.02.77-.56,1.41-1.33,1.46-.03,0-.1,0-.13,0h0Z"/>
      <path class="cls-1" d="M27.71,13.72c-.81,0-1.46-.58-1.53-1.37-.05-.57.25-1.12.76-1.38.21-.11.43-.16.65-.16s.42.05.62.14c.53.17.94.64.99,1.23.07.78-.51,1.47-1.29,1.53-.04,0-.16,0-.2,0Z"/>
      <path class="cls-1" d="M8.86,38.5c-.32,0-.63-.11-.88-.31-.37-.3-.57-.76-.53-1.23l.03-.33c.03-.37.21-.75.5-.99.55-.46,1.05-.96,1.55-1.48-.27-.11-.54-.21-.82-.31-.85-.31-1.73-.64-2.6-1.17-.96-.54-1.99-1.12-3.02-2l-.1-.07c-.47-.33-1.1-.78-1.54-1.58-.71-1.18-1.15-2.41-1.35-3.81-.09-.91.09-1.68.27-2.36,0,0,0,0-.01-.01-.23-.25-.37-.59-.38-.93h0c-.03-1.18.71-1.95,1.25-2.52.13-.13.26-.27.37-.41.19-.33.26-.6.21-.87-.09-.55-.19-1.08-.3-1.6-.17-.88-.35-1.8-.45-2.79-.17-1.07.12-2.11.35-2.79.02-.07.05-.14.09-.21.5-.94,1.45-1.52,2.48-1.52.32,0,.64.05.95.16,2.84.97,6.17,2.21,9.4,4.03,1.01.62,1.06,1.67,1.09,2.24,0,.14.02.36.04.43.01.03.02.08.03.11.1.44.1.97-.02,1.45.04.01.08.02.11.04.79.29,1.25.84,1.54,1.36.11-.03.23-.04.34-.04,0,0,.01,0,.02,0,.05,0,.15-.02.25-.02.7,0,1.1.35,1.27.56.07.09.14.19.19.29.12.25.24.48.35.7.12-.22.23-.45.35-.7.05-.1.11-.2.19-.29.18-.21.57-.56,1.27-.56.1,0,.2,0,.29.02h0c.11,0,.22.02.33.04.29-.51.75-1.07,1.54-1.36.04-.01.08-.03.11-.04-.11-.47-.12-1.01-.02-1.45,0-.04.02-.08.03-.11.02-.07.03-.29.04-.43.03-.57.08-1.63,1.05-2.22,3.27-1.84,6.61-3.08,9.44-4.05.31-.11.63-.16.95-.16,1.03,0,1.98.58,2.48,1.52.04.07.06.14.09.21.23.68.52,1.72.34,2.88-.09.91-.27,1.82-.44,2.71-.1.52-.21,1.05-.29,1.6-.04.28.02.54.21.88.11.14.24.27.37.41.54.57,1.28,1.35,1.25,2.52h0c0,.34-.14.68-.38.94,0,0,0,0,0,0,.18.68.36,1.45.28,2.3-.21,1.48-.65,2.7-1.39,3.93-.41.75-1.05,1.2-1.51,1.53l-.1.07c-1.04.89-2.07,1.47-3.06,2.03-.82.5-1.7.83-2.55,1.14-.28.1-.55.2-.82.31.49.52.99,1.01,1.55,1.48.29.24.47.59.5.96l.03.37c.04.47-.16.93-.53,1.23-.25.2-.57.31-.88.31-.15,0-.29-.02-.44-.07-1.79-.58-3.24-1.55-4.62-2.55-1.66.38-3.91.78-5.6.84-.02,0-.08,0-.1,0-1.69-.06-3.94-.46-5.6-.84-1.38.99-2.83,1.97-4.62,2.55-.14.05-.29.07-.44.07ZM5.15,25.94c1.58,1.2,3.33,1.96,5.05,2.58-.59-.34-1.17-.74-1.75-1.2-.67-.48-.99-1.3-1.24-1.95l-.07-.18s-.03-.09-.05-.14c-.09-.33-.2-.65-.31-.97-.07-.21-.14-.43-.21-.65-.38.89-.88,1.72-1.42,2.52ZM32.35,24.08c-.11.32-.21.64-.31.97-.01.05-.03.09-.05.14l-.07.18c-.25.66-.57,1.47-1.3,2-.55.44-1.12.82-1.69,1.15,1.74-.63,3.48-1.39,5.04-2.57-.54-.8-1.04-1.63-1.42-2.52-.07.22-.14.44-.21.66ZM26.36,22.59c.18.17.34.37.46.62.51-.32,1-.66,1.47-1-.03-.03-.06-.06-.08-.08-.15.12-.33.21-.52.26-.28.07-.57.11-.88.15-.16.02-.32.04-.45.06ZM10.84,22.21c.47.34.96.68,1.47,1,.12-.24.28-.45.46-.62-.13-.02-.29-.04-.45-.06-.3-.04-.6-.07-.88-.15-.19-.05-.37-.14-.52-.26-.03.03-.06.05-.08.08ZM31.82,16.24c.28.17.54.38.76.64.01-.03.02-.07.03-.1.13-.38.25-.74.34-1.08-.27.12-.54.25-.83.39l-.3.15ZM6.18,15.7c.09.34.21.7.34,1.08.01.03.02.07.03.1.22-.26.48-.47.76-.64l-.3-.14c-.29-.14-.57-.27-.84-.4Z"/>
    </g>
  </g>
  <g>
    <rect class="cls-2" x="18.28" y="1.93" width="2.48" height="2.67" transform="translate(2.72 13.73) rotate(-41.41)"/>
    <rect class="cls-2" x="18.28" y="36.49" width="2.48" height="2.67" transform="translate(-20.14 22.37) rotate(-41.41)"/>
    <g>
      <path class="cls-2" d="M12.03,12.91c2.39,1.22,4.7,2.25,7.08,3.47.18.02.23.09.45.1.18.02.27-.08.45-.1,2.39-1.22,4.7-2.25,7.08-3.47.27-.12.33-.49.49-.69.96-1.74,1.63-3.55,1.11-5.35-.15-.72-.85-1.31-1.46-2-.71-.77-1.76-1.14-2.7-1.34-.6-.13-1.3-.07-1.82.25-.27.11-.62.33-.77.71-.48,1.89-1.98,3.86-.73,5.5.1.08.49.33.85.2,1.71-.52,3.33-.93,4.98-1.07.37-.03.27.99-.09,1.11-2.3,1.12-5,2.02-7.4,3.05-2.4-1.04-5.09-1.94-7.4-3.05-.36-.12-.46-1.15-.09-1.11,1.65.14,3.27.56,4.98,1.07.36.12.75-.12.85-.2,1.25-1.65-.24-3.62-.73-5.5-.15-.38-.5-.6-.77-.71-.53-.32-1.22-.37-1.82-.25-.94.2-1.99.57-2.7,1.34-.61.69-1.31,1.27-1.46,2-.52,1.8.15,3.61,1.11,5.35.17.2.23.57.49.69ZM22.64,7.18c-.46.04-.25-.72,0-1.01.26-.21.63-.24.99-.27.46-.04,1.21.17,1.25.54.08.92-1.5.77-2.24.75ZM15.5,5.9c.37.03.73.06.99.27.25.3.46,1.05,0,1.01-.74.03-2.32.17-2.24-.75.03-.37.79-.58,1.25-.54Z"/>
      <path class="cls-2" d="M19.57,29.38s0,0,0,0c.05,0,.05,0,0,0Z"/>
      <path class="cls-2" d="M11.54,12.23s-.1.08-.19.08c.09,0,.18.02.19-.08Z"/>
      <path class="cls-2" d="M19.6,35.31s-.02,0-.03,0c-.01,0-.02,0-.03,0h.07Z"/>
      <path class="cls-2" d="M19.56,29.38s0,0,0,0c-.05,0-.04,0,0,0Z"/>
      <path class="cls-2" d="M27.78,12.3c-.09,0-.19-.08-.19-.08,0,.09.1.08.19.08Z"/>
      <path class="cls-2" d="M36.36,19.78c-.32-.53-.56-1.15-.44-1.9.24-1.5.59-2.82.74-4.31.12-.75-.03-1.47-.28-2.19-.33-.62-1-.93-1.72-.68-3.25,1.11-6.26,2.29-9.16,3.92-.53.32-.26,1.22-.48,1.89-.07.28-.03.74.09,1.01.21.35.42.61.72.86,1.36.81,2.46,1.82,3.57,2.92.51.6.58,1.43-.11,1.95-2.26,1.67-4.72,3.08-7.5,2.86-.92-.01-.27-.99.34-1.41,1.04-.73,2.26-.56,3.46-.48.19-1.03-1.74-.96-1.83-1.96-.02-.27.33-.49.6-.51.44-.22.81-.25,1.26-.38.53-.23,1.18-.19,1.72-.33-.99-.84-1.78-2.43-3.31-2.02-.98.36-.97,1.56-1.57,2.16-.25.3-.42-.61-.8-.76-.09,0-.37-.06-.46.04-.47.96-.95,1.84-1.63,2.54-.68-.7-1.16-1.58-1.63-2.54-.08-.1-.37-.03-.46-.04-.38.15-.55,1.06-.8.76-.59-.6-.58-1.8-1.57-2.16-1.53-.41-2.32,1.19-3.31,2.02.54.14,1.19.1,1.72.33.45.13.82.16,1.26.38.27.02.63.24.6.51-.09,1.01-2.02.93-1.83,1.96,1.21-.08,2.42-.25,3.46.48.61.42,1.26,1.4.34,1.41-2.79.22-5.25-1.19-7.5-2.86-.69-.52-.62-1.34-.11-1.95,1.11-1.1,2.21-2.12,3.57-2.92.3-.25.5-.51.72-.86.12-.27.15-.72.09-1.01-.22-.66.04-1.56-.48-1.89-2.9-1.63-5.92-2.81-9.16-3.92-.72-.25-1.39.07-1.72.68-.25.72-.4,1.44-.28,2.19.15,1.49.5,2.81.74,4.31.12.75-.12,1.37-.44,1.9-.52.69-1.4,1.26-1.38,2.1,0,.09.76-.21.63.15-.18,1-.63,1.98-.53,3,.17,1.21.54,2.26,1.19,3.33.32.58.85.9,1.28,1.22.94.82,1.91,1.36,2.88,1.91,1.58.97,3.4,1.21,4.97,2.27-.92,1.03-1.84,2.06-2.93,2.98,0,.09-.02.27-.03.37,1.8-.58,3.28-1.66,4.75-2.73,1.71.42,4.21.89,5.96.95,1.75-.06,4.25-.53,5.96-.95,1.48,1.07,2.95,2.15,4.75,2.73,0-.09-.02-.27-.03-.37-1.09-.92-2.01-1.95-2.93-2.98,1.57-1.06,3.39-1.3,4.97-2.27.97-.54,1.94-1.09,2.88-1.91.43-.31.96-.64,1.28-1.22.65-1.07,1.02-2.12,1.19-3.33.1-1.02-.36-2-.53-3-.12-.36.64-.06.63-.15.02-.83-.86-1.4-1.38-2.1ZM19.57,29.31s0,0,0,0c0,0,0,0,0,0,0,0,0,0,0,0t0,0ZM13.81,31.02c-1.04.28-2.27-.47-3.42-.94-2.51-.86-4.91-1.9-6.97-3.73-.08-.1.03-.37.04-.46,1.36-1.91,2.64-3.92,2.3-6.44-.22-1.77-1.2-3.24-1.15-4.89-.06-.37.25-.81.7-.68.99.27,1.83.72,2.76,1.16.71.34,2.08.46,2.19,1.39-.8.67-2.55.7-2.83,1.79.37-.06,1.31-.16,1.07.46-.23.53-.73.95-.87,1.49-.32,1.63.39,2.98.81,4.5.23.57.45,1.24.88,1.55,1.55,1.24,3.16,1.93,4.94,2.64.27.02.63.24.61.42-.05.64-.5,1.53-1.07,1.75ZM19.56,32.17c-1.13.04-2.29-.14-3.2-.67.43-.74.75-1.64,1.55-1.99.45-.2,1.43-.15,1.64-.14t0,0s0,0,0,0c.22-.01,1.19-.06,1.64.14.8.35,1.12,1.25,1.55,1.99-.91.53-2.07.7-3.2.67ZM35.71,26.35c-2.06,1.84-4.46,2.87-6.97,3.73-1.16.47-2.39,1.22-3.42.94-.57-.23-1.02-1.11-1.07-1.75-.02-.18.33-.4.61-.42,1.78-.71,3.39-1.4,4.94-2.64.43-.31.65-.98.88-1.55.42-1.51,1.14-2.86.81-4.5-.14-.54-.64-.96-.87-1.49-.24-.63.69-.52,1.07-.46-.28-1.08-2.03-1.12-2.83-1.79.1-.93,1.48-1.05,2.19-1.39.93-.44,1.77-.89,2.76-1.16.45-.13.76.3.7.68.05,1.66-.93,3.12-1.15,4.89-.34,2.52.94,4.53,2.3,6.44,0,.09.12.36.04.46Z"/>
    </g>
  </g>
</svg>